<?xml version="1.0" encoding="UTF-8" standalone="no"?>
<svg
   xmlns:dc="http://purl.org/dc/elements/1.1/"
   xmlns:cc="http://creativecommons.org/ns#"
   xmlns:rdf="http://www.w3.org/1999/02/22-rdf-syntax-ns#"
   xmlns:svg="http://www.w3.org/2000/svg"
   xmlns="http://www.w3.org/2000/svg"
   viewBox="0 0 578.98669 480.30667"
   height="480.30667"
   width="578.98669"
   xml:space="preserve"
   id="svg2"
   version="1.1"><metadata
     id="metadata8"><rdf:RDF><cc:Work
         rdf:about=""><dc:format>image/svg+xml</dc:format><dc:type
           rdf:resource="http://purl.org/dc/dcmitype/StillImage" /></cc:Work></rdf:RDF></metadata><defs
     id="defs6"><clipPath
       id="clipPath22"
       clipPathUnits="userSpaceOnUse"><path
         id="path20"
         d="m 3862.35,1811.15 c 0,-935.259 -758.22,-1693.4 -1693.53,-1693.4 -935.16,0 -1693.324,758.141 -1693.324,1693.4 0,935.27 758.164,1693.4 1693.324,1693.4 935.31,0 1693.53,-758.13 1693.53,-1693.4 z" /></clipPath><linearGradient
       id="linearGradient30"
       spreadMethod="pad"
       gradientTransform="matrix(3400.67,0,0,-3400.67,475.498,1811.15)"
       gradientUnits="userSpaceOnUse"
       y2="0"
       x2="1"
       y1="0"
       x1="0"><stop
         id="stop24"
         offset="0"
         style="stop-opacity:1;stop-color:#ffffff" /><stop
         id="stop26"
         offset="0.41503764"
         style="stop-opacity:1;stop-color:#2e2a2b" /><stop
         id="stop28"
         offset="1"
         style="stop-opacity:1;stop-color:#2e2a2b" /></linearGradient></defs><g
     transform="matrix(1.3333333,0,0,-1.3333333,0,480.30667)"
     id="g10"><g
       transform="scale(0.1)"
       id="g12"><path
         id="path14"
         style="fill:#231f20;fill-opacity:1;fill-rule:nonzero;stroke:none"
         d="m 4342.44,2281.56 h -437.67 c -210.29,761.42 -907.55,1320.73 -1735.95,1320.73 -828.25,0 -1525.465,-559.31 -1735.746,-1320.73 H 0 v -970.5 H 435.828 C 649.324,554.582 1344.08,0 2168.82,0 2993.67,0 3688.48,554.582 3902,1311.06 h 440.44 v 970.5" /><g
         id="g16"><g
           clip-path="url(#clipPath22)"
           id="g18"><path
             id="path32"
             style="fill:url(#linearGradient30);fill-opacity:1;fill-rule:nonzero;stroke:none"
             d="m 3862.35,1811.15 c 0,-935.259 -758.22,-1693.4 -1693.53,-1693.4 -935.16,0 -1693.324,758.141 -1693.324,1693.4 0,935.27 758.164,1693.4 1693.324,1693.4 935.31,0 1693.53,-758.13 1693.53,-1693.4" /></g></g><path
         id="path34"
         style="fill:#ffffff;fill-opacity:1;fill-rule:nonzero;stroke:none"
         d="m 745.102,972.281 c -41.223,71.489 -76.961,146.279 -107.059,222.999 41.035,-35.01 84.598,-65.31 129.012,-93.57 87.476,-54.67 178.726,-101.04 271.545,-143.21 0.96,-3.5 1.85,-6.988 2.85,-10.551 53.22,-183.847 138.17,-356.738 257,-496.597 36.78,-43.352 76.97,-83.332 120.1,-118.993 -166.16,84.071 -314.11,194.192 -439.898,323.993 -89.851,95.859 -168.375,202.097 -233.55,315.929 z M 3346.71,765.609 c -16.58,28.313 -38.35,53.082 -61.6,75.832 -46.96,45.34 -100.08,83.508 -154.59,118.731 -18.58,11.726 -37.44,23.238 -56.33,34.578 46.31,86.68 87.06,176.83 122.28,269.18 61.17,-3.34 122.13,-5.09 183.33,-4.69 73.68,0.81 147.66,4.74 220.34,17.76 36.28,6.84 72.44,15.72 106.3,30.87 16.78,7.66 33.15,16.77 47.25,29.01 3.07,2.77 6.1,5.67 9,8.77 -78.57,-267.24 -219.32,-500.529 -402.24,-688.259 2.08,4.507 3.91,9.109 5.15,14.031 8.77,32.488 -2.46,66.5 -18.89,94.187 z M 2267.78,205.73 c 169.81,65.879 324.51,176.84 458.27,310.559 7.44,7.41 14.37,15.043 21.64,22.52 90.15,-5.438 180.67,-6.938 270.83,-2.309 64.84,3.66 129.97,10.602 193.13,26.852 29.62,7.867 59,18.039 86.13,32.898 -322.41,-297.898 -757.29,-463.289 -1209.51,-441.18 60.81,10.879 120.96,27.969 179.51,50.66 z m -408.39,-23.39 c 26.08,9.238 51.55,22.762 75.89,39.238 58.21,40.012 110.43,94.262 158.27,153.352 55.77,69.449 105.72,145.859 151.82,225.511 127.15,-22.359 255.13,-40.211 383.6,-52.339 32.86,-3.114 65.61,-5.782 98.43,-8.032 -4.95,-4.968 -9.79,-10.101 -14.85,-15.039 -134.12,-131.422 -289.34,-237.172 -456.5,-298.531 -83.44,-30.668 -169.64,-49.648 -255.76,-54.82 -23.71,-1.559 -47.47,-1.739 -71.13,-1.051 -23.27,3.391 -46.5,7.351 -69.77,11.711 z m -836.64,1343.02 c 85.3,-0.62 170.93,-5.79 256.19,-13.92 98.31,-9.31 196.36,-21.87 294.08,-37.4 -27.39,-162.86 -46.17,-326.42 -53.96,-489.329 -2.43,-51.75 -3.25,-103.219 -2.73,-154.582 -128.03,44.953 -254.23,94.82 -377.59,150.293 -20.6,9.297 -41.05,18.719 -61.4,28.398 -41.11,166.3 -58.04,341.17 -54.59,516.54 z M 595.051,1342.93 c -14.289,24.44 -20.965,49.57 -15.324,69.32 4.925,19.71 23.062,38.43 47.562,52.48 24.344,14.13 53.121,24.27 82.734,32.12 59.551,15.48 122.766,22.29 185.934,25.9 23.828,1.28 47.656,1.99 71.5,2.25 -0.047,-0.04 0,-0.12 -0.047,-0.26 -2.137,-165.15 14.348,-329.71 51.13,-487.53 -75.102,37.38 -148.442,77.72 -218.395,122.63 -53.215,34.36 -104.813,71.5 -148.973,114.32 -21.813,21.41 -41.91,44.56 -56.121,68.77 z m 3161.599,955.36 c -16.66,28.31 -38.59,53.05 -61.97,75.86 -47.12,45.44 -100.62,83.63 -155.49,118.99 -75.14,47.89 -153.44,90.55 -233.31,129.8 -3.74,15.01 -7.37,30.07 -11.41,44.97 -35.76,129.46 -86.4,254.09 -153.84,366.11 9.56,3.83 18.89,8.36 27.6,14.3 13.47,8.9 26.32,22.02 30.81,39.34 2.73,10.05 2,20.23 -0.23,29.89 266.65,-211.37 461.72,-500.03 559.83,-822.83 -0.59,1.16 -1.32,2.39 -1.99,3.57 z m 23.59,-860.69 c -6.19,17.61 -15.86,33.65 -26.71,48.61 -22.04,29.86 -49.01,55.48 -77.15,79.24 -56.81,47.39 -119.19,87.27 -182.8,124.43 -52.64,30.44 -106.4,58.86 -160.76,85.91 15.26,96.73 24.53,194.14 27.69,291.48 22.25,0.42 44.51,1 66.79,2.16 65.15,3.58 130.53,10.47 193.88,26.66 31.59,8.28 62.92,18.99 91.45,35.32 28.09,16.09 54.57,40.04 62.97,72.61 1.82,6.57 2.6,13.23 2.85,19.88 65.14,-254.28 70.93,-527.19 5.43,-798.65 -0.91,4.17 -2.17,8.32 -3.64,12.35 z m -501.05,83.43 c 22.09,82.98 39.75,167.05 53.11,251.79 50.83,-24.67 101.05,-50.73 150.25,-78.7 63.45,-36.61 125.8,-76 182.5,-122.87 28.09,-23.53 55.12,-48.99 77.07,-78.59 10.9,-14.91 20.57,-30.84 26.75,-48.25 6.3,-17.33 8.66,-36.62 3.89,-54.76 -4.75,-18.13 -16.38,-33.64 -30.32,-45.66 -14.04,-12.14 -30.3,-21.18 -47.2,-28.78 -33.7,-14.85 -69.75,-23.62 -105.86,-30.19 -72.45,-12.75 -146.01,-16.3 -219.37,-16.9 -56.62,0 -113.18,2.19 -169.64,5.93 30.41,80.84 56.94,163.31 78.82,246.98 z m -347.71,-219.27 c -119.59,16.68 -238.52,37.74 -356.68,61.93 34.41,105.18 65.8,211.48 93.94,318.54 28.33,106.44 53.39,213.8 75.23,321.49 114.75,-37.3 228.42,-77.77 340.72,-122.2 80.06,-32.48 159.6,-66.65 237.58,-103.94 -13.19,-85.47 -30.68,-170.34 -52.63,-254.08 -22.34,-84.24 -49.41,-167.27 -80.35,-248.64 -86.22,5.97 -172.21,15.6 -257.81,26.9 z m -145.47,-159.3 c -82.61,37.18 -166.46,71.58 -251.22,103.97 11.29,31.76 22.33,63.62 33.04,95.75 123.06,-22.06 246.6,-40.79 370.76,-55.44 81.97,-9.74 164.31,-17.33 246.71,-22.22 -34.87,-90.58 -75.24,-178.95 -120.86,-264.09 -89.85,52.9 -183.39,99.4 -278.43,142.03 z m -1149.85,428.07 c 143.21,-44.85 287.67,-85.03 432.92,-121.46 161.96,-40.4 325.13,-75.74 489.3,-105.22 -10.57,-31.49 -21.39,-62.7 -32.64,-93.92 -155.32,58.99 -313.54,110.23 -473.56,155.33 -141.12,39.24 -283.62,74.05 -427.58,102.71 3.81,20.86 7.5,41.79 11.56,62.56 z m -117.98,888.11 c 92.8,-38.87 186.86,-74.09 281.74,-106.47 -7.22,-20.74 -14.35,-41.58 -21.41,-62.41 -127.41,26.65 -255.63,49.7 -384.83,67.78 -65.18,8.6 -130.58,16.28 -196.17,22.15 25.68,64.81 54.08,128.36 85.27,190.29 76.94,-40.89 155.75,-77.27 235.4,-111.34 z m 160.65,588.06 c 136.27,-12.89 272.03,-32.31 407.03,-56.83 -25.21,-43.52 -49.4,-87.92 -72.36,-133.22 -74.28,-146.42 -139.05,-299.12 -195.9,-455.34 -94.3,35.24 -187.42,73.24 -279.05,114.46 -76.72,34.37 -152.44,71.26 -225.63,111.84 0.4,0.77 0.77,1.56 1.15,2.26 83.57,154.11 184.34,297.92 301.98,422.29 20.95,-1.67 41.9,-3.43 62.78,-5.46 z m 254.52,263.5 c 15.45,-13.54 31.51,-25.75 47.99,-37.13 51.84,-35.3 106.77,-63.23 162.52,-88.52 17.33,-7.65 34.82,-14.9 52.26,-21.93 -22.57,-31.74 -44.35,-64.48 -65.3,-97.86 -8.06,-12.8 -15.82,-25.72 -23.68,-38.74 -138.76,29.98 -278.76,54.62 -420.24,71.6 -7.95,0.85 -15.96,1.65 -23.92,2.54 82.96,81 173.53,152.77 270.37,210.04 z m 900.14,15.68 c 72.32,-47.03 137.88,-106.14 195.36,-173.95 31.78,-37.52 61.08,-77.71 87.83,-119.86 -28.82,-8.57 -58.23,-12.82 -87.54,-15.36 -61,-4.95 -121.71,-1.99 -181.88,3.58 -7.56,0.74 -15.04,1.7 -22.58,2.61 -2.82,26.98 -6.11,53.82 -10.38,80.34 -12.36,74.98 -30.92,148.06 -61.92,211.45 -12.98,26.35 -28.4,50.62 -46.39,71.49 21.87,-7.49 43.48,-15.3 64.9,-23.63 21.37,-11.32 42.24,-23.45 62.6,-36.67 z m 359.64,-650.08 c -117.25,52.71 -236.89,100.18 -357.98,143.36 -0.22,65.3 -3.07,130 -9.36,193.61 7.96,-0.72 16.04,-1.48 24.16,-2.07 60.82,-4.47 122.07,-5.56 183.3,0.1 29.18,2.83 58.3,7.36 86.85,16.01 68.7,-108.98 121.38,-231.4 158.17,-359.84 3.48,-11.63 6.33,-23.41 9.4,-35.1 -31.33,15.1 -62.82,29.73 -94.54,43.93 z m -427.79,-560.34 c 89.93,-13.83 180.2,-25.36 270.77,-33.95 103.98,-10.03 208.47,-15.83 312.98,-14.46 -2.84,-95.57 -11.73,-191.18 -26.31,-286.23 -74.43,36.75 -150.12,70.82 -226.47,102.98 -114.96,48.58 -231.55,93.3 -349.24,134.86 6.41,32.23 12.46,64.49 18.27,96.8 z m -275.07,953.62 c 103.6,-25.37 208.8,-44.47 315.2,-54.63 5.68,-47.18 9.39,-95.2 11.54,-143.71 0.6,-15.15 0.98,-30.43 1.35,-45.67 -119.53,42.14 -240.58,80.13 -362.61,114.46 -102.66,28.61 -206.16,54.82 -310.47,78.15 26.63,45.52 54.52,89.61 83.94,131.85 85.39,-32.49 172.68,-58.58 261.05,-80.45 z m -205,156.02 c 46.13,57.45 96.25,109.75 150.65,147.37 27.1,18.59 55.27,33.33 83.74,41.49 28.29,8.34 56.94,9.61 83.37,3.22 54.2,-12.75 97.27,-58.94 127.36,-117.67 30.3,-59.05 49.73,-129.21 62.99,-201.97 4.31,-23.79 7.83,-47.92 10.85,-72.29 -105.51,13.42 -209.39,36.51 -311.35,65.14 -83.33,23.61 -165.65,51.49 -245.7,84.49 12.43,17.11 25.07,33.91 38.09,50.22 z m 173.74,224.83 c 14.74,-2.68 29.62,-5.52 44.4,-8.56 -25.38,-8.58 -50.22,-21.14 -74.08,-36.54 -59.4,-38.55 -113.11,-92.12 -162.27,-150.41 -17.84,-21.24 -35.01,-43.45 -51.73,-66.05 -20.34,8.8 -40.62,17.88 -60.57,27.39 -54.34,25.74 -107.45,54.53 -156.81,88.79 -10.95,7.7 -21.74,15.77 -32.09,24.15 41.37,22.82 83.86,42.95 127.33,59.85 82.06,32.14 167.27,53.04 252.85,60.12 37.67,3.19 75.35,3.5 112.97,1.26 z m -333.92,-467.3 c 106.2,-20.13 211.79,-43.22 316.69,-69.11 126.7,-31.68 252.53,-66.84 376.96,-106.86 0.86,-56.58 -0.06,-113.74 -2.97,-171.21 -8.02,-164.71 -27.61,-330.52 -55.98,-495.73 -165.64,30.54 -329.74,69.95 -491.95,115.06 -137.72,38.72 -274.06,82.3 -408.3,131.22 0.81,2.18 1.56,4.46 2.4,6.7 54.24,150.46 114.48,298.34 184.06,439.45 25.23,50.96 51.52,101.33 79.09,150.48 z m 135.08,-810.48 c -144.61,40.08 -290.33,76.64 -437.13,108.33 6.43,19.23 13.21,38.34 19.91,57.46 139.06,-46.01 279.95,-86.05 421.82,-121.54 162.32,-40.04 326.1,-73.84 491.1,-99.57 -5.6,-31.71 -11.56,-63.38 -17.75,-95.03 -157.53,55.49 -317.1,105.4 -477.95,150.35 z m -540.52,-239.26 c 27.3,103.85 57.7,206.71 90.8,308.47 146.26,-27.33 291.81,-59.42 436.34,-95.38 164.1,-41.23 327.22,-87.18 488.28,-139.38 -21.54,-108.05 -46.55,-215.6 -74.35,-322.18 -28.69,-107.05 -60.25,-213.6 -95.1,-318.83 -165.82,34.12 -330.23,74.76 -493.27,119.81 -143.43,40.03 -285.8,84.12 -426.52,132.48 21.55,105.66 46.08,210.78 73.82,315.01 z m 1630.51,167.46 c -0.17,-7.23 -0.55,-14.4 -0.69,-21.6 -107.44,-0.57 -214.65,7.77 -321.16,19.76 -86.76,10.4 -172.93,23.85 -258.85,39.46 1.08,6.11 2.32,12.18 3.34,18.22 27.37,159.03 48,319.02 57.13,478.17 2.98,55.69 4.95,111.49 5.11,166.93 116.63,-37.88 231.96,-79.91 345.26,-127.37 36.54,-15.66 72.97,-31.86 109.04,-48.72 43.78,-168.54 63.39,-346.26 60.82,-524.85 z m 11.3,-2.41 c 3.43,175.79 -13.2,351.3 -54.01,518.84 75.21,-35.59 148.86,-74.44 219.54,-118.64 54.72,-34.74 107.97,-72.4 155.1,-117.31 23.32,-22.55 45.25,-47 62.02,-75.06 16.54,-27.56 27.87,-61.17 19.38,-93.68 -8.67,-32.39 -35.09,-55.99 -63.09,-71.82 -28.47,-16.2 -59.63,-26.56 -90.95,-34.62 -63.21,-15.8 -128.11,-22.28 -192.83,-25.47 -18.62,-0.83 -37.2,-1.21 -55.65,-1.4 0.12,6.42 0.49,12.78 0.49,19.16 z M 3193,3122.13 c 2.72,-9.96 3.71,-20.53 0.96,-31.05 -4.57,-17.04 -17.38,-29.89 -30.78,-38.58 -8.24,-5.41 -16.9,-9.59 -25.79,-13.21 -26.68,43.79 -55.96,85.69 -88.08,125.02 -39.52,48.53 -83.22,92.98 -130.58,132.39 97.98,-49.54 189.64,-108.18 274.27,-174.57 z m -1263.51,240.14 c -9.98,10.87 -19.05,22.62 -25.38,35.17 -6.41,12.49 -9.14,25.6 -6.19,36.01 1.93,7.76 7.33,15.36 14.91,21.9 109.48,17.26 221.51,23.63 334.72,18.29 -54.9,-9.8 -109.31,-24.66 -162.55,-44.03 -52.36,-19.16 -103.58,-42.56 -153.35,-69.49 -0.66,0.7 -1.49,1.41 -2.16,2.15 z m -825.28,-1266.7 c 20.49,78.04 44.97,154.97 72.86,230.54 69.27,-4.68 138.52,-11.35 207.51,-19.59 127.36,-14.86 254.22,-34.23 380.58,-56.97 -32.95,-100.68 -62.96,-202.36 -90.27,-304.67 -26.99,-103.19 -51.28,-207.29 -72.35,-311.8 -121.23,42.74 -241.16,88.54 -359.27,138.58 -64.01,26.95 -127.45,55.33 -189.92,85.38 13.06,80.21 29.96,159.91 50.86,238.53 z M 578.668,2234.4 c 0.75,3.12 1.68,6.11 2.469,9.22 8.98,16.91 30.195,32.69 55.289,43.67 29.922,13.5 64.043,22.2 98.515,28.61 69.575,12.71 141.969,16.68 214.219,17.52 56.13,0.43 112.44,-0.93 168.8,-3.77 -26.34,-72.07 -49.48,-145.29 -69.15,-219.46 -19.64,-74.92 -35.78,-150.74 -48.51,-227.08 -50.511,25.36 -100.198,51.99 -148.894,80.22 -62.426,36.49 -123.394,75.69 -177.601,121.07 -26.856,22.6 -52.207,47.01 -71.571,73.57 -16.332,21.86 -27,45.96 -26.507,65.1 1.003,3.8 1.871,7.56 2.941,11.33 z m 446.052,-652.86 c 3.06,70.54 9.5,141.06 19,211.33 59.61,-27.18 119.84,-52.59 180.39,-77.07 121.54,-48.12 244.62,-91.53 368.75,-131.35 -4.31,-22.58 -8.46,-45.13 -12.45,-67.74 -97.19,18.44 -195.06,33.86 -293.57,45.64 -86.91,9.73 -174.22,17.02 -262.12,19.19 z m 840.15,-861.239 c -104.6,29.488 -208.44,61.781 -311.22,96.918 0.21,57.301 2.29,115.133 5.65,172.769 9.2,157.052 29.73,315.432 56.99,473.072 0.26,1.24 0.53,2.44 0.7,3.72 141.55,-23.8 282.33,-53.29 421.78,-87.73 162.61,-40.61 323.91,-87.19 482.34,-142.22 -56.77,-156.76 -121.26,-309.65 -195.2,-455.99 -26.27,-52.371 -54.25,-103.442 -83.56,-153.11 -126.88,26.532 -252.77,57.77 -377.48,92.571 z M 1755.09,206 c -53.72,14.691 -95.11,62.219 -123.61,121.512 -28.77,59.59 -46.53,129.797 -58.25,202.527 -12.05,76.621 -17.7,156.242 -19.12,237 101.63,-30.98 204.08,-59.199 307.05,-85.008 121.37,-29.902 243.65,-56.242 366.64,-78.472 -5.66,-9.289 -11.25,-18.668 -17.01,-27.821 -41.1,-65.738 -84.91,-128.636 -132.53,-185.629 -47.5,-56.777 -99.02,-108.257 -154.56,-144.5 -27.71,-18.089 -56.37,-32.019 -85.11,-39.179 -28.55,-7.539 -57.42,-7.86 -83.5,-0.43 z m 1299.75,776.23 c -86.43,-157.5 -192.19,-303.191 -314.42,-428.832 -39.44,3.243 -78.95,7.012 -118.13,11.524 -122.01,14.469 -242.96,34.93 -363.06,59.469 27.66,49.191 54.09,99.539 79.4,150.531 70.71,142.777 131.78,292.088 186.5,443.898 1.79,4.93 3.46,9.83 5.21,14.7 82.1,-28.76 163.53,-59.49 243.88,-93.24 98.58,-42.34 196.04,-88.14 289.07,-141.85 -2.8,-5.348 -5.54,-10.789 -8.45,-16.2 z m 18.41,10.5 c 15.44,-9.039 30.89,-18.191 46.07,-27.878 54.52,-34.61 107.54,-72.204 154.41,-117.032 23.24,-22.578 45.07,-46.988 61.68,-75.039 16.41,-27.461 27.73,-61.121 19.26,-93.609 -8.66,-32.391 -35.11,-56.102 -62.86,-71.813 -28.42,-16.257 -59.48,-26.668 -90.77,-34.847 -62.89,-15.801 -127.63,-22.282 -192.1,-25.571 -82.99,-3.711 -165.93,-1.121 -248.71,4.95 119.3,126.148 221.21,271.418 305.7,426.847 2.42,4.594 4.78,9.301 7.32,13.992 z M 1712.8,3411.03 c 52.23,15.03 105.28,27.54 159.05,37.35 -1.26,-3 -2.39,-6.13 -3.24,-9.31 -3.05,-11.66 -2.95,-23.8 -0.98,-34.24 2,-10.52 5.61,-19.78 9.79,-28.11 6.68,-12.98 14.71,-23.97 23.27,-33.99 -102.12,-59.19 -197.72,-133.57 -284.49,-218.22 -5.94,-5.82 -11.67,-12 -17.59,-17.96 -101.48,9.19 -203.73,14.1 -306.67,9.69 -53.31,-2.61 -106.89,-7.35 -160.5,-17.74 67.69,55.9 139.56,106.59 215.34,151.14 114.98,67.79 238.14,122.21 366.02,161.39 z m -692.76,-413.16 c 1.49,0.96 3.01,1.92 4.6,2.77 24.38,14.21 53.32,24.28 83.03,32.08 59.79,15.38 123.19,22.2 186.68,25.67 84.96,4.4 170.65,3.1 256.39,-1.85 -109.27,-118.66 -204.48,-253 -283.67,-397.06 -0.74,-1.49 -1.45,-2.9 -2.3,-4.44 -22.35,13.15 -44.49,26.59 -66.31,40.47 -53.41,34.41 -105.25,71.72 -149.64,114.55 -21.92,21.51 -42.12,44.52 -56.34,68.87 -14.472,24.38 -21.207,49.52 -15.542,69.25 0.718,2.94 1.847,5.83 3.085,8.7 13.192,13.84 26.467,27.55 40.017,40.99 z M 916.773,2886.04 c 4.95,-16.4 12.055,-31.26 20.063,-44.79 19.176,-32.12 42.922,-58.18 67.724,-82.11 49.86,-47.48 104.75,-86.05 160.94,-121.71 22.58,-14.13 45.47,-27.55 68.58,-40.57 -35.21,-69.06 -66.95,-139.98 -95.34,-212.35 -62.93,4.51 -125.95,7.29 -189.381,7.21 -74.746,-0.39 -149.929,-3.82 -225.636,-17.05 -37.528,-6.82 -75.293,-15.8 -112.711,-32.13 57.258,170.59 141.918,331.89 250.929,475.12 17.629,23.29 35.965,46.03 54.832,68.38 z M 536.887,1587.28 c -23.563,175.18 -18.282,353.87 14.492,527.41 24.484,-32.41 52.637,-58.77 81.766,-83.09 59.242,-48.86 122.964,-88.95 187.734,-126.3 55.504,-31.51 112.07,-60.38 169.332,-87.59 -10.969,-78.23 -17.91,-156.88 -21.047,-235.61 -25.121,0 -50.359,-0.35 -75.629,-1.5 -66.156,-3.37 -132.652,-9.9 -199.254,-26.59 -33.191,-8.66 -66.59,-19.61 -98.972,-38.08 -14.371,-8.26 -28.524,-18.32 -41.536,-31.05 -6.609,34.04 -12.363,68.11 -16.886,102.4 z M 1515.68,305.582 c -70.89,48.477 -134.64,108.637 -190.22,177.148 -104.03,128.102 -178.5,283.95 -227.67,449.45 6.79,-2.848 13.5,-5.871 20.28,-8.77 130.9,-54.898 264.39,-102.578 399.32,-144.859 0.37,-10.949 0.52,-21.832 1.04,-32.66 3.52,-78.871 10.96,-157 24.82,-232.11 13.92,-75.062 34.17,-148.16 66.72,-210.961 13.21,-25.3 28.69,-48.5 46.57,-68.57 -15.01,4.82 -29.89,9.91 -44.61,15.211 -33.21,16.379 -65.4,34.949 -96.25,56.121 z M 2609.81,3482.89 C 1689.74,3725.96 743.445,3175.21 500.395,2255.08 257.359,1334.97 808.164,388.691 1728.25,145.691 2648.37,-97.3906 3594.65,453.43 3837.65,1373.5 4080.69,2293.64 3529.9,3239.9 2609.81,3482.89" /><path
         id="path36"
         style="fill:none;stroke:#ffffff;stroke-width:5;stroke-linecap:butt;stroke-linejoin:miter;stroke-miterlimit:4;stroke-dasharray:none;stroke-opacity:1"
         d="m 745.102,972.281 c -41.223,71.489 -76.961,146.279 -107.059,222.999 41.035,-35.01 84.598,-65.31 129.012,-93.57 87.476,-54.67 178.726,-101.04 271.545,-143.21 0.96,-3.5 1.85,-6.988 2.85,-10.551 53.22,-183.847 138.17,-356.738 257,-496.597 36.78,-43.352 76.97,-83.332 120.1,-118.993 -166.16,84.071 -314.11,194.192 -439.898,323.993 -89.851,95.859 -168.375,202.097 -233.55,315.929 z M 3346.71,765.609 c -16.58,28.313 -38.35,53.082 -61.6,75.832 -46.96,45.34 -100.08,83.508 -154.59,118.731 -18.58,11.726 -37.44,23.238 -56.33,34.578 46.31,86.68 87.06,176.83 122.28,269.18 61.17,-3.34 122.13,-5.09 183.33,-4.69 73.68,0.81 147.66,4.74 220.34,17.76 36.28,6.84 72.44,15.72 106.3,30.87 16.78,7.66 33.15,16.77 47.25,29.01 3.07,2.77 6.1,5.67 9,8.77 -78.57,-267.24 -219.32,-500.529 -402.24,-688.259 2.08,4.507 3.91,9.109 5.15,14.031 8.77,32.488 -2.46,66.5 -18.89,94.187 z M 2267.78,205.73 c 169.81,65.879 324.51,176.84 458.27,310.559 7.44,7.41 14.37,15.043 21.64,22.52 90.15,-5.438 180.67,-6.938 270.83,-2.309 64.84,3.66 129.97,10.602 193.13,26.852 29.62,7.867 59,18.039 86.13,32.898 -322.41,-297.898 -757.29,-463.289 -1209.51,-441.18 60.81,10.879 120.96,27.969 179.51,50.66 z m -408.39,-23.39 c 26.08,9.238 51.55,22.762 75.89,39.238 58.21,40.012 110.43,94.262 158.27,153.352 55.77,69.449 105.72,145.859 151.82,225.511 127.15,-22.359 255.13,-40.211 383.6,-52.339 32.86,-3.114 65.61,-5.782 98.43,-8.032 -4.95,-4.968 -9.79,-10.101 -14.85,-15.039 -134.12,-131.422 -289.34,-237.172 -456.5,-298.531 -83.44,-30.668 -169.64,-49.648 -255.76,-54.82 -23.71,-1.559 -47.47,-1.739 -71.13,-1.051 -23.27,3.391 -46.5,7.351 -69.77,11.711 z m -836.64,1343.02 c 85.3,-0.62 170.93,-5.79 256.19,-13.92 98.31,-9.31 196.36,-21.87 294.08,-37.4 -27.39,-162.86 -46.17,-326.42 -53.96,-489.329 -2.43,-51.75 -3.25,-103.219 -2.73,-154.582 -128.03,44.953 -254.23,94.82 -377.59,150.293 -20.6,9.297 -41.05,18.719 -61.4,28.398 -41.11,166.3 -58.04,341.17 -54.59,516.54 z M 595.051,1342.93 c -14.289,24.44 -20.965,49.57 -15.324,69.32 4.925,19.71 23.062,38.43 47.562,52.48 24.344,14.13 53.121,24.27 82.734,32.12 59.551,15.48 122.766,22.29 185.934,25.9 23.828,1.28 47.656,1.99 71.5,2.25 -0.047,-0.04 0,-0.12 -0.047,-0.26 -2.137,-165.15 14.348,-329.71 51.13,-487.53 -75.102,37.38 -148.442,77.72 -218.395,122.63 -53.215,34.36 -104.813,71.5 -148.973,114.32 -21.813,21.41 -41.91,44.56 -56.121,68.77 z m 3161.599,955.36 c -16.66,28.31 -38.59,53.05 -61.97,75.86 -47.12,45.44 -100.62,83.63 -155.49,118.99 -75.14,47.89 -153.44,90.55 -233.31,129.8 -3.74,15.01 -7.37,30.07 -11.41,44.97 -35.76,129.46 -86.4,254.09 -153.84,366.11 9.56,3.83 18.89,8.36 27.6,14.3 13.47,8.9 26.32,22.02 30.81,39.34 2.73,10.05 2,20.23 -0.23,29.89 266.65,-211.37 461.72,-500.03 559.83,-822.83 -0.59,1.16 -1.32,2.39 -1.99,3.57 z m 23.59,-860.69 c -6.19,17.61 -15.86,33.65 -26.71,48.61 -22.04,29.86 -49.01,55.48 -77.15,79.24 -56.81,47.39 -119.19,87.27 -182.8,124.43 -52.64,30.44 -106.4,58.86 -160.76,85.91 15.26,96.73 24.53,194.14 27.69,291.48 22.25,0.42 44.51,1 66.79,2.16 65.15,3.58 130.53,10.47 193.88,26.66 31.59,8.28 62.92,18.99 91.45,35.32 28.09,16.09 54.57,40.04 62.97,72.61 1.82,6.57 2.6,13.23 2.85,19.88 65.14,-254.28 70.93,-527.19 5.43,-798.65 -0.91,4.17 -2.17,8.32 -3.64,12.35 z m -501.05,83.43 c 22.09,82.98 39.75,167.05 53.11,251.79 50.83,-24.67 101.05,-50.73 150.25,-78.7 63.45,-36.61 125.8,-76 182.5,-122.87 28.09,-23.53 55.12,-48.99 77.07,-78.59 10.9,-14.91 20.57,-30.84 26.75,-48.25 6.3,-17.33 8.66,-36.62 3.89,-54.76 -4.75,-18.13 -16.38,-33.64 -30.32,-45.66 -14.04,-12.14 -30.3,-21.18 -47.2,-28.78 -33.7,-14.85 -69.75,-23.62 -105.86,-30.19 -72.45,-12.75 -146.01,-16.3 -219.37,-16.9 -56.62,0 -113.18,2.19 -169.64,5.93 30.41,80.84 56.94,163.31 78.82,246.98 z m -347.71,-219.27 c -119.59,16.68 -238.52,37.74 -356.68,61.93 34.41,105.18 65.8,211.48 93.94,318.54 28.33,106.44 53.39,213.8 75.23,321.49 114.75,-37.3 228.42,-77.77 340.72,-122.2 80.06,-32.48 159.6,-66.65 237.58,-103.94 -13.19,-85.47 -30.68,-170.34 -52.63,-254.08 -22.34,-84.24 -49.41,-167.27 -80.35,-248.64 -86.22,5.97 -172.21,15.6 -257.81,26.9 z m -145.47,-159.3 c -82.61,37.18 -166.46,71.58 -251.22,103.97 11.29,31.76 22.33,63.62 33.04,95.75 123.06,-22.06 246.6,-40.79 370.76,-55.44 81.97,-9.74 164.31,-17.33 246.71,-22.22 -34.87,-90.58 -75.24,-178.95 -120.86,-264.09 -89.85,52.9 -183.39,99.4 -278.43,142.03 z m -1149.85,428.07 c 143.21,-44.85 287.67,-85.03 432.92,-121.46 161.96,-40.4 325.13,-75.74 489.3,-105.22 -10.57,-31.49 -21.39,-62.7 -32.64,-93.92 -155.32,58.99 -313.54,110.23 -473.56,155.33 -141.12,39.24 -283.62,74.05 -427.58,102.71 3.81,20.86 7.5,41.79 11.56,62.56 z m -117.98,888.11 c 92.8,-38.87 186.86,-74.09 281.74,-106.47 -7.22,-20.74 -14.35,-41.58 -21.41,-62.41 -127.41,26.65 -255.63,49.7 -384.83,67.78 -65.18,8.6 -130.58,16.28 -196.17,22.15 25.68,64.81 54.08,128.36 85.27,190.29 76.94,-40.89 155.75,-77.27 235.4,-111.34 z m 160.65,588.06 c 136.27,-12.89 272.03,-32.31 407.03,-56.83 -25.21,-43.52 -49.4,-87.92 -72.36,-133.22 -74.28,-146.42 -139.05,-299.12 -195.9,-455.34 -94.3,35.24 -187.42,73.24 -279.05,114.46 -76.72,34.37 -152.44,71.26 -225.63,111.84 0.4,0.77 0.77,1.56 1.15,2.26 83.57,154.11 184.34,297.92 301.98,422.29 20.95,-1.67 41.9,-3.43 62.78,-5.46 z m 254.52,263.5 c 15.45,-13.54 31.51,-25.75 47.99,-37.13 51.84,-35.3 106.77,-63.23 162.52,-88.52 17.33,-7.65 34.82,-14.9 52.26,-21.93 -22.57,-31.74 -44.35,-64.48 -65.3,-97.86 -8.06,-12.8 -15.82,-25.72 -23.68,-38.74 -138.76,29.98 -278.76,54.62 -420.24,71.6 -7.95,0.85 -15.96,1.65 -23.92,2.54 82.96,81 173.53,152.77 270.37,210.04 z m 900.14,15.68 c 72.32,-47.03 137.88,-106.14 195.36,-173.95 31.78,-37.52 61.08,-77.71 87.83,-119.86 -28.82,-8.57 -58.23,-12.82 -87.54,-15.36 -61,-4.95 -121.71,-1.99 -181.88,3.58 -7.56,0.74 -15.04,1.7 -22.58,2.61 -2.82,26.98 -6.11,53.82 -10.38,80.34 -12.36,74.98 -30.92,148.06 -61.92,211.45 -12.98,26.35 -28.4,50.62 -46.39,71.49 21.87,-7.49 43.48,-15.3 64.9,-23.63 21.37,-11.32 42.24,-23.45 62.6,-36.67 z m 359.64,-650.08 c -117.25,52.71 -236.89,100.18 -357.98,143.36 -0.22,65.3 -3.07,130 -9.36,193.61 7.96,-0.72 16.04,-1.48 24.16,-2.07 60.82,-4.47 122.07,-5.56 183.3,0.1 29.18,2.83 58.3,7.36 86.85,16.01 68.7,-108.98 121.38,-231.4 158.17,-359.84 3.48,-11.63 6.33,-23.41 9.4,-35.1 -31.33,15.1 -62.82,29.73 -94.54,43.93 z m -427.79,-560.34 c 89.93,-13.83 180.2,-25.36 270.77,-33.95 103.98,-10.03 208.47,-15.83 312.98,-14.46 -2.84,-95.57 -11.73,-191.18 -26.31,-286.23 -74.43,36.75 -150.12,70.82 -226.47,102.98 -114.96,48.58 -231.55,93.3 -349.24,134.86 6.41,32.23 12.46,64.49 18.27,96.8 z m -275.07,953.62 c 103.6,-25.37 208.8,-44.47 315.2,-54.63 5.68,-47.18 9.39,-95.2 11.54,-143.71 0.6,-15.15 0.98,-30.43 1.35,-45.67 -119.53,42.14 -240.58,80.13 -362.61,114.46 -102.66,28.61 -206.16,54.82 -310.47,78.15 26.63,45.52 54.52,89.61 83.94,131.85 85.39,-32.49 172.68,-58.58 261.05,-80.45 z m -205,156.02 c 46.13,57.45 96.25,109.75 150.65,147.37 27.1,18.59 55.27,33.33 83.74,41.49 28.29,8.34 56.94,9.61 83.37,3.22 54.2,-12.75 97.27,-58.94 127.36,-117.67 30.3,-59.05 49.73,-129.21 62.99,-201.97 4.31,-23.79 7.83,-47.92 10.85,-72.29 -105.51,13.42 -209.39,36.51 -311.35,65.14 -83.33,23.61 -165.65,51.49 -245.7,84.49 12.43,17.11 25.07,33.91 38.09,50.22 z m 173.74,224.83 c 14.74,-2.68 29.62,-5.52 44.4,-8.56 -25.38,-8.58 -50.22,-21.14 -74.08,-36.54 -59.4,-38.55 -113.11,-92.12 -162.27,-150.41 -17.84,-21.24 -35.01,-43.45 -51.73,-66.05 -20.34,8.8 -40.62,17.88 -60.57,27.39 -54.34,25.74 -107.45,54.53 -156.81,88.79 -10.95,7.7 -21.74,15.77 -32.09,24.15 41.37,22.82 83.86,42.95 127.33,59.85 82.06,32.14 167.27,53.04 252.85,60.12 37.67,3.19 75.35,3.5 112.97,1.26 z m -333.92,-467.3 c 106.2,-20.13 211.79,-43.22 316.69,-69.11 126.7,-31.68 252.53,-66.84 376.96,-106.86 0.86,-56.58 -0.06,-113.74 -2.97,-171.21 -8.02,-164.71 -27.61,-330.52 -55.98,-495.73 -165.64,30.54 -329.74,69.95 -491.95,115.06 -137.72,38.72 -274.06,82.3 -408.3,131.22 0.81,2.18 1.56,4.46 2.4,6.7 54.24,150.46 114.48,298.34 184.06,439.45 25.23,50.96 51.52,101.33 79.09,150.48 z m 135.08,-810.48 c -144.61,40.08 -290.33,76.64 -437.13,108.33 6.43,19.23 13.21,38.34 19.91,57.46 139.06,-46.01 279.95,-86.05 421.82,-121.54 162.32,-40.04 326.1,-73.84 491.1,-99.57 -5.6,-31.71 -11.56,-63.38 -17.75,-95.03 -157.53,55.49 -317.1,105.4 -477.95,150.35 z m -540.52,-239.26 c 27.3,103.85 57.7,206.71 90.8,308.47 146.26,-27.33 291.81,-59.42 436.34,-95.38 164.1,-41.23 327.22,-87.18 488.28,-139.38 -21.54,-108.05 -46.55,-215.6 -74.35,-322.18 -28.69,-107.05 -60.25,-213.6 -95.1,-318.83 -165.82,34.12 -330.23,74.76 -493.27,119.81 -143.43,40.03 -285.8,84.12 -426.52,132.48 21.55,105.66 46.08,210.78 73.82,315.01 z m 1630.51,167.46 c -0.17,-7.23 -0.55,-14.4 -0.69,-21.6 -107.44,-0.57 -214.65,7.77 -321.16,19.76 -86.76,10.4 -172.93,23.85 -258.85,39.46 1.08,6.11 2.32,12.18 3.34,18.22 27.37,159.03 48,319.02 57.13,478.17 2.98,55.69 4.95,111.49 5.11,166.93 116.63,-37.88 231.96,-79.91 345.26,-127.37 36.54,-15.66 72.97,-31.86 109.04,-48.72 43.78,-168.54 63.39,-346.26 60.82,-524.85 z m 11.3,-2.41 c 3.43,175.79 -13.2,351.3 -54.01,518.84 75.21,-35.59 148.86,-74.44 219.54,-118.64 54.72,-34.74 107.97,-72.4 155.1,-117.31 23.32,-22.55 45.25,-47 62.02,-75.06 16.54,-27.56 27.87,-61.17 19.38,-93.68 -8.67,-32.39 -35.09,-55.99 -63.09,-71.82 -28.47,-16.2 -59.63,-26.56 -90.95,-34.62 -63.21,-15.8 -128.11,-22.28 -192.83,-25.47 -18.62,-0.83 -37.2,-1.21 -55.65,-1.4 0.12,6.42 0.49,12.78 0.49,19.16 z M 3193,3122.13 c 2.72,-9.96 3.71,-20.53 0.96,-31.05 -4.57,-17.04 -17.38,-29.89 -30.78,-38.58 -8.24,-5.41 -16.9,-9.59 -25.79,-13.21 -26.68,43.79 -55.96,85.69 -88.08,125.02 -39.52,48.53 -83.22,92.98 -130.58,132.39 97.98,-49.54 189.64,-108.18 274.27,-174.57 z m -1263.51,240.14 c -9.98,10.87 -19.05,22.62 -25.38,35.17 -6.41,12.49 -9.14,25.6 -6.19,36.01 1.93,7.76 7.33,15.36 14.91,21.9 109.48,17.26 221.51,23.63 334.72,18.29 -54.9,-9.8 -109.31,-24.66 -162.55,-44.03 -52.36,-19.16 -103.58,-42.56 -153.35,-69.49 -0.66,0.7 -1.49,1.41 -2.16,2.15 z m -825.28,-1266.7 c 20.49,78.04 44.97,154.97 72.86,230.54 69.27,-4.68 138.52,-11.35 207.51,-19.59 127.36,-14.86 254.22,-34.23 380.58,-56.97 -32.95,-100.68 -62.96,-202.36 -90.27,-304.67 -26.99,-103.19 -51.28,-207.29 -72.35,-311.8 -121.23,42.74 -241.16,88.54 -359.27,138.58 -64.01,26.95 -127.45,55.33 -189.92,85.38 13.06,80.21 29.96,159.91 50.86,238.53 z M 578.668,2234.4 c 0.75,3.12 1.68,6.11 2.469,9.22 8.98,16.91 30.195,32.69 55.289,43.67 29.922,13.5 64.043,22.2 98.515,28.61 69.575,12.71 141.969,16.68 214.219,17.52 56.13,0.43 112.44,-0.93 168.8,-3.77 -26.34,-72.07 -49.48,-145.29 -69.15,-219.46 -19.64,-74.92 -35.78,-150.74 -48.51,-227.08 -50.511,25.36 -100.198,51.99 -148.894,80.22 -62.426,36.49 -123.394,75.69 -177.601,121.07 -26.856,22.6 -52.207,47.01 -71.571,73.57 -16.332,21.86 -27,45.96 -26.507,65.1 1.003,3.8 1.871,7.56 2.941,11.33 z m 446.052,-652.86 c 3.06,70.54 9.5,141.06 19,211.33 59.61,-27.18 119.84,-52.59 180.39,-77.07 121.54,-48.12 244.62,-91.53 368.75,-131.35 -4.31,-22.58 -8.46,-45.13 -12.45,-67.74 -97.19,18.44 -195.06,33.86 -293.57,45.64 -86.91,9.73 -174.22,17.02 -262.12,19.19 z m 840.15,-861.239 c -104.6,29.488 -208.44,61.781 -311.22,96.918 0.21,57.301 2.29,115.133 5.65,172.769 9.2,157.052 29.73,315.432 56.99,473.072 0.26,1.24 0.53,2.44 0.7,3.72 141.55,-23.8 282.33,-53.29 421.78,-87.73 162.61,-40.61 323.91,-87.19 482.34,-142.22 -56.77,-156.76 -121.26,-309.65 -195.2,-455.99 -26.27,-52.371 -54.25,-103.442 -83.56,-153.11 -126.88,26.532 -252.77,57.77 -377.48,92.571 z M 1755.09,206 c -53.72,14.691 -95.11,62.219 -123.61,121.512 -28.77,59.59 -46.53,129.797 -58.25,202.527 -12.05,76.621 -17.7,156.242 -19.12,237 101.63,-30.98 204.08,-59.199 307.05,-85.008 121.37,-29.902 243.65,-56.242 366.64,-78.472 -5.66,-9.289 -11.25,-18.668 -17.01,-27.821 -41.1,-65.738 -84.91,-128.636 -132.53,-185.629 -47.5,-56.777 -99.02,-108.257 -154.56,-144.5 -27.71,-18.089 -56.37,-32.019 -85.11,-39.179 -28.55,-7.539 -57.42,-7.86 -83.5,-0.43 z m 1299.75,776.23 c -86.43,-157.5 -192.19,-303.191 -314.42,-428.832 -39.44,3.243 -78.95,7.012 -118.13,11.524 -122.01,14.469 -242.96,34.93 -363.06,59.469 27.66,49.191 54.09,99.539 79.4,150.531 70.71,142.777 131.78,292.088 186.5,443.898 1.79,4.93 3.46,9.83 5.21,14.7 82.1,-28.76 163.53,-59.49 243.88,-93.24 98.58,-42.34 196.04,-88.14 289.07,-141.85 -2.8,-5.348 -5.54,-10.789 -8.45,-16.2 z m 18.41,10.5 c 15.44,-9.039 30.89,-18.191 46.07,-27.878 54.52,-34.61 107.54,-72.204 154.41,-117.032 23.24,-22.578 45.07,-46.988 61.68,-75.039 16.41,-27.461 27.73,-61.121 19.26,-93.609 -8.66,-32.391 -35.11,-56.102 -62.86,-71.813 -28.42,-16.257 -59.48,-26.668 -90.77,-34.847 -62.89,-15.801 -127.63,-22.282 -192.1,-25.571 -82.99,-3.711 -165.93,-1.121 -248.71,4.95 119.3,126.148 221.21,271.418 305.7,426.847 2.42,4.594 4.78,9.301 7.32,13.992 z M 1712.8,3411.03 c 52.23,15.03 105.28,27.54 159.05,37.35 -1.26,-3 -2.39,-6.13 -3.24,-9.31 -3.05,-11.66 -2.95,-23.8 -0.98,-34.24 2,-10.52 5.61,-19.78 9.79,-28.11 6.68,-12.98 14.71,-23.97 23.27,-33.99 -102.12,-59.19 -197.72,-133.57 -284.49,-218.22 -5.94,-5.82 -11.67,-12 -17.59,-17.96 -101.48,9.19 -203.73,14.1 -306.67,9.69 -53.31,-2.61 -106.89,-7.35 -160.5,-17.74 67.69,55.9 139.56,106.59 215.34,151.14 114.98,67.79 238.14,122.21 366.02,161.39 z m -692.76,-413.16 c 1.49,0.96 3.01,1.92 4.6,2.77 24.38,14.21 53.32,24.28 83.03,32.08 59.79,15.38 123.19,22.2 186.68,25.67 84.96,4.4 170.65,3.1 256.39,-1.85 -109.27,-118.66 -204.48,-253 -283.67,-397.06 -0.74,-1.49 -1.45,-2.9 -2.3,-4.44 -22.35,13.15 -44.49,26.59 -66.31,40.47 -53.41,34.41 -105.25,71.72 -149.64,114.55 -21.92,21.51 -42.12,44.52 -56.34,68.87 -14.472,24.38 -21.207,49.52 -15.542,69.25 0.718,2.94 1.847,5.83 3.085,8.7 13.192,13.84 26.467,27.55 40.017,40.99 z M 916.773,2886.04 c 4.95,-16.4 12.055,-31.26 20.063,-44.79 19.176,-32.12 42.922,-58.18 67.724,-82.11 49.86,-47.48 104.75,-86.05 160.94,-121.71 22.58,-14.13 45.47,-27.55 68.58,-40.57 -35.21,-69.06 -66.95,-139.98 -95.34,-212.35 -62.93,4.51 -125.95,7.29 -189.381,7.21 -74.746,-0.39 -149.929,-3.82 -225.636,-17.05 -37.528,-6.82 -75.293,-15.8 -112.711,-32.13 57.258,170.59 141.918,331.89 250.929,475.12 17.629,23.29 35.965,46.03 54.832,68.38 z M 536.887,1587.28 c -23.563,175.18 -18.282,353.87 14.492,527.41 24.484,-32.41 52.637,-58.77 81.766,-83.09 59.242,-48.86 122.964,-88.95 187.734,-126.3 55.504,-31.51 112.07,-60.38 169.332,-87.59 -10.969,-78.23 -17.91,-156.88 -21.047,-235.61 -25.121,0 -50.359,-0.35 -75.629,-1.5 -66.156,-3.37 -132.652,-9.9 -199.254,-26.59 -33.191,-8.66 -66.59,-19.61 -98.972,-38.08 -14.371,-8.26 -28.524,-18.32 -41.536,-31.05 -6.609,34.04 -12.363,68.11 -16.886,102.4 z M 1515.68,305.582 c -70.89,48.477 -134.64,108.637 -190.22,177.148 -104.03,128.102 -178.5,283.95 -227.67,449.45 6.79,-2.848 13.5,-5.871 20.28,-8.77 130.9,-54.898 264.39,-102.578 399.32,-144.859 0.37,-10.949 0.52,-21.832 1.04,-32.66 3.52,-78.871 10.96,-157 24.82,-232.11 13.92,-75.062 34.17,-148.16 66.72,-210.961 13.21,-25.3 28.69,-48.5 46.57,-68.57 -15.01,4.82 -29.89,9.91 -44.61,15.211 -33.21,16.379 -65.4,34.949 -96.25,56.121 z M 2609.81,3482.89 C 1689.74,3725.96 743.445,3175.21 500.395,2255.08 257.359,1334.97 808.164,388.691 1728.25,145.691 2648.37,-97.3906 3594.65,453.43 3837.65,1373.5 4080.69,2293.64 3529.9,3239.9 2609.81,3482.89 Z" /><path
         id="path38"
         style="fill:none;stroke:#b2b1b1;stroke-width:85;stroke-linecap:butt;stroke-linejoin:miter;stroke-miterlimit:10;stroke-dasharray:none;stroke-opacity:1"
         d="M 2603.71,3451.56 C 1703.66,3689.33 777.23,3147.86 538.586,2244.41 299.957,1340.98 838.066,412.57 1738.15,174.852 2638.23,-62.9297 3564.65,478.609 3803.24,1382.02 4041.89,2285.46 3503.8,3213.85 2603.71,3451.56 Z" /><path
         id="path40"
         style="fill:#ffffff;fill-opacity:1;fill-rule:nonzero;stroke:none"
         d="m 66.3398,1377.2 h 4207.71 v 838.16 H 66.3398 Z" /><path
         id="path42"
         style="fill:#231f20;fill-opacity:1;fill-rule:nonzero;stroke:none"
         d="M 302.605,2033.29 H 202.18 v 63.81 h 273.465 v -63.81 H 375.219 v -250.76 h -72.614 v 250.76" /><path
         id="path44"
         style="fill:#231f20;fill-opacity:1;fill-rule:nonzero;stroke:none"
         d="m 777.402,1938.92 v 0.9 c 0,53.93 -41.496,98.86 -99.961,98.86 -58.461,0 -99.011,-44.04 -99.011,-97.96 v -0.9 c 0,-53.93 41.492,-98.86 99.961,-98.86 58.461,0 99.011,44.04 99.011,97.96 z m -274.882,0 v 0.9 c 0,89.42 74.023,162.67 175.871,162.67 101.839,0 174.922,-72.35 174.922,-161.77 v -0.9 c 0,-89.42 -74.028,-162.68 -175.872,-162.68 -101.839,0 -174.921,72.36 -174.921,161.78" /><path
         id="path46"
         style="fill:#231f20;fill-opacity:1;fill-rule:nonzero;stroke:none"
         d="m 1086.23,1914.2 -43.85,102.01 -43.849,-102.01 z m -76.39,185.15 h 66.96 l 141.45,-316.82 h -75.92 l -30.17,70.56 H 972.598 l -30.176,-70.56 h -74.024 l 141.442,316.82" /><path
         id="path48"
         style="fill:#231f20;fill-opacity:1;fill-rule:nonzero;stroke:none"
         d="m 1241.82,1828.37 42.9,48.99 c 29.71,-23.37 60.83,-38.2 98.55,-38.2 29.7,0 47.62,11.24 47.62,29.66 v 0.9 c 0,17.52 -11.32,26.51 -66.49,39.99 -66.48,16.18 -109.38,33.7 -109.38,96.17 v 0.9 c 0,57.07 48.09,94.81 115.52,94.81 48.09,0 89.11,-14.38 122.59,-39.99 l -37.72,-52.13 c -29.24,19.32 -58,31.01 -85.82,31.01 -27.81,0 -42.43,-12.14 -42.43,-27.41 v -0.9 c 0,-20.67 14.14,-27.41 71.19,-41.34 66.96,-16.63 104.68,-39.55 104.68,-94.37 v -0.9 c 0,-62.46 -49.98,-97.52 -121.18,-97.52 -49.97,0 -100.42,16.63 -140.03,50.33" /><path
         id="path50"
         style="fill:#231f20;fill-opacity:1;fill-rule:nonzero;stroke:none"
         d="m 1635.99,2033.29 h -100.43 v 63.81 h 273.47 v -63.81 H 1708.6 v -250.76 h -72.61 v 250.76" /><path
         id="path52"
         style="fill:#231f20;fill-opacity:1;fill-rule:nonzero;stroke:none"
         d="m 1864.66,2097.1 h 78.27 l 86.76,-133.01 86.76,133.01 h 78.27 v -314.57 h -72.15 v 205.37 l -92.88,-134.36 h -1.89 l -91.94,133.01 v -204.02 h -71.2 v 314.57" /><path
         id="path54"
         style="fill:#231f20;fill-opacity:1;fill-rule:nonzero;stroke:none"
         d="m 2463.46,1914.2 -43.85,102.01 -43.86,-102.01 z m -76.39,185.15 h 66.95 l 141.45,-316.82 h -75.91 l -30.18,70.56 h -139.56 l -30.17,-70.56 h -74.02 l 141.44,316.82" /><path
         id="path56"
         style="fill:#231f20;fill-opacity:1;fill-rule:nonzero;stroke:none"
         d="m 2619.05,1828.37 42.91,48.99 c 29.7,-23.37 60.82,-38.2 98.54,-38.2 29.71,0 47.63,11.24 47.63,29.66 v 0.9 c 0,17.52 -11.32,26.51 -66.49,39.99 -66.47,16.18 -109.38,33.7 -109.38,96.17 v 0.9 c 0,57.07 48.09,94.81 115.51,94.81 48.1,0 89.11,-14.38 122.59,-39.99 l -37.71,-52.13 c -29.24,19.32 -58,31.01 -85.82,31.01 -27.82,0 -42.44,-12.14 -42.44,-27.41 v -0.9 c 0,-20.67 14.15,-27.41 71.21,-41.34 66.94,-16.63 104.66,-39.55 104.66,-94.37 v -0.9 c 0,-62.46 -49.98,-97.52 -121.17,-97.52 -49.98,0 -100.43,16.63 -140.04,50.33" /><path
         id="path58"
         style="fill:#231f20;fill-opacity:1;fill-rule:nonzero;stroke:none"
         d="M 3013.22,2033.29 H 2912.8 v 63.81 h 273.47 v -63.81 h -100.43 v -250.76 h -72.62 v 250.76" /><path
         id="path60"
         style="fill:#231f20;fill-opacity:1;fill-rule:nonzero;stroke:none"
         d="m 3241.9,2097.1 h 248.95 v -61.56 h -176.81 v -63.82 h 155.59 v -61.56 h -155.59 v -66.06 h 179.17 v -61.57 H 3241.9 v 314.57" /><path
         id="path62"
         style="fill:#231f20;fill-opacity:1;fill-rule:nonzero;stroke:none"
         d="m 3703.96,1944.31 c 35.37,0 55.64,17.98 55.64,44.49 v 0.9 c 0,29.66 -21.69,44.94 -57.05,44.94 h -72.14 v -90.33 z M 3557.8,2097.1 h 150.88 c 41.96,0 74.49,-11.24 96.18,-31.9 18.39,-17.53 28.29,-42.25 28.29,-71.9 v -0.9 c 0,-50.78 -28.76,-82.69 -70.72,-97.52 l 80.63,-112.35 h -84.88 l -70.72,100.67 h -57.05 v -100.67 h -72.61 v 314.57" /><path
         id="path64"
         style="fill:#231f20;fill-opacity:1;fill-rule:nonzero;stroke:none"
         d="m 3876.05,1828.37 42.91,48.99 c 29.7,-23.37 60.83,-38.2 98.55,-38.2 29.7,0 47.62,11.24 47.62,29.66 v 0.9 c 0,17.52 -11.32,26.51 -66.49,39.99 -66.47,16.18 -109.38,33.7 -109.38,96.17 v 0.9 c 0,57.07 48.09,94.81 115.52,94.81 48.09,0 89.11,-14.38 122.58,-39.99 l -37.71,-52.13 c -29.24,19.32 -58,31.01 -85.82,31.01 -27.81,0 -42.43,-12.14 -42.43,-27.41 v -0.9 c 0,-20.67 14.14,-27.41 71.19,-41.34 66.95,-16.63 104.68,-39.55 104.68,-94.37 v -0.9 c 0,-62.46 -49.98,-97.52 -121.18,-97.52 -49.98,0 -100.43,16.63 -140.04,50.33" /><path
         id="path66"
         style="fill:#4f4c4c;fill-opacity:1;fill-rule:nonzero;stroke:none"
         d="m 3664.25,1682.08 c 2.76,0 4.31,1.45 4.31,3.48 0,2.29 -1.55,3.48 -4.31,3.48 h -5.16 v -6.96 z m -9.23,10.56 h 9.59 c 4.68,0 8.15,-2.27 8.15,-6.72 0,-3.47 -2.03,-5.63 -4.91,-6.47 l 5.64,-8.04 h -4.93 l -5.02,7.32 h -4.45 v -7.32 h -4.07 z m 26.62,-11.03 v 0.12 c 0,10.19 -7.91,18.59 -18.47,18.59 -10.44,0 -18.47,-8.52 -18.47,-18.71 v -0.13 c 0,-10.19 7.92,-18.58 18.47,-18.58 10.43,0 18.47,8.51 18.47,18.71 z m -39.34,-0.13 v 0.13 c 0,11.39 9.24,20.98 20.87,20.98 11.75,0 20.87,-9.47 20.87,-20.86 v -0.12 c 0,-11.4 -9.24,-20.99 -20.87,-20.99 -11.75,0 -20.87,9.47 -20.87,20.86" /><path
         id="path68"
         style="fill:#4f4c4c;fill-opacity:1;fill-rule:nonzero;stroke:none"
         d="m 647.379,1705.92 h 23.496 l -0.695,-206.25 h -22.946 l 0.145,206.25" /><path
         id="path70"
         style="fill:#4f4c4c;fill-opacity:1;fill-rule:nonzero;stroke:none"
         d="m 776.656,1705.92 h 22.074 l 129.958,-164.84 0.046,164.84 h 22.696 v -206.25 h -18.242 l -133.407,168.75 -0.609,-168.75 h -22.277 l -0.239,206.25" /><path
         id="path72"
         style="fill:#4f4c4c;fill-opacity:1;fill-rule:nonzero;stroke:none"
         d="m 1109.97,1684.2 h -69.13 v 21.57 h 162.18 l -0.08,-21.41 h -69.22 v -184.84 h -23.59 l -0.16,184.68" /><path
         id="path74"
         style="fill:#4f4c4c;fill-opacity:1;fill-rule:nonzero;stroke:none"
         d="m 1292.53,1706.62 h 149.16 v -21.25 h -125.63 l -0.15,-70.16 112.65,-0.31 -0.15,-21.1 -112.5,-0.15 0.15,-72.03 127.04,-0.47 0.11,-20.78 h -150.68 v 206.25" /><path
         id="path76"
         style="fill:#4f4c4c;fill-opacity:1;fill-rule:nonzero;stroke:none"
         d="m 1616.78,1600.41 c 44.34,-0.11 58.71,20.2 59.22,45.23 v 0 c -3.01,20.44 -12.21,39.07 -58.18,39.07 l -58.81,-0.42 -0.08,-83.47 z m -80.97,105.51 h 82.54 c 31.15,0 51.99,-6.72 65.74,-21.09 6.19,-6.47 15.15,-23.54 15.15,-38.28 v 0 c 0,-34.47 -19.68,-55.94 -55.73,-62.6 l 63.33,-84.27 -28.79,-0.01 -60.04,79.96 h -58.59 l -0.33,-79.96 h -23.25 l -0.03,206.25" /><path
         id="path78"
         style="fill:#4f4c4c;fill-opacity:1;fill-rule:nonzero;stroke:none"
         d="m 1794.83,1705.92 h 22.21 l 129.94,-165.52 -0.02,165.52 h 22.7 l 0.06,-206.25 h -18.71 l -132.92,168.75 -0.18,-168.75 h -22.78 l -0.3,206.25" /><path
         id="path80"
         style="fill:#4f4c4c;fill-opacity:1;fill-rule:nonzero;stroke:none"
         d="m 2207.61,1575.37 -46.69,104.75 -47.22,-104.75 z m -57.36,132.04 h 21.77 l 93.99,-207.74 h -24.98 l -23.79,54.18 -112.63,0.18 -24.48,-54.36 h -23.99 l 94.11,207.74" /><path
         id="path82"
         style="fill:#4f4c4c;fill-opacity:1;fill-rule:nonzero;stroke:none"
         d="m 2380.42,1684.49 -69.06,-0.18 v 21.61 h 162.17 v -21.61 h -69.34 l -0.16,-184.64 h -23.43 l -0.18,184.82" /><path
         id="path84"
         style="fill:#4f4c4c;fill-opacity:1;fill-rule:nonzero;stroke:none"
         d="m 2565.09,1499.67 h 23.2617 v 206.25 H 2565.09 Z" /><path
         id="path86"
         style="fill:#4f4c4c;fill-opacity:1;fill-rule:nonzero;stroke:none"
         d="m 2871.92,1602.6 v 0.59 c 0,50.97 -38.32,85.32 -81.11,84.87 -51.13,-0.54 -80.86,-40.12 -81.03,-84.66 v -0.6 c 0.17,-48.78 32.63,-75.28 58.94,-82.53 56.49,-15.58 105.31,30.11 103.2,82.33 z m -186.34,-0.39 v 0.59 c 0,56.29 42.91,106.59 103.59,106.66 66.46,0.08 106.68,-49.67 106.68,-105.94 v 0 c 2.28,-61.56 -55.08,-122.25 -132.03,-104.59 -42.31,9.71 -77.31,50.55 -78.24,103.28" /><path
         id="path88"
         style="fill:#4f4c4c;fill-opacity:1;fill-rule:nonzero;stroke:none"
         d="m 2991.01,1705.92 h 21.89 l 129.9,-165.31 0.08,165.31 h 22.91 v -206.25 h -18.77 l -133.12,168.91 -0.16,-168.91 h -22.66 l -0.07,206.25" /><path
         id="path90"
         style="fill:#4f4c4c;fill-opacity:1;fill-rule:nonzero;stroke:none"
         d="m 3403.72,1575.61 -47.03,104.69 -46.88,-105 z m -57.34,131.8 h 21.77 l 94.07,-207.74 h -25.06 l -24.53,54.53 -111.88,-0.15 -24.69,-54.38 h -23.75 l 94.07,207.74" /><path
         id="path92"
         style="fill:#4f4c4c;fill-opacity:1;fill-rule:nonzero;stroke:none"
         d="m 3548.7,1705.92 h 23.3 l -0.1,-184.84 116.41,-0.16 -0.16,-21.25 H 3548.7 v 206.25" /></g></g></svg>